<?xml version="1.0" standalone="no"?><!DOCTYPE svg PUBLIC "-//W3C//DTD SVG 1.1//EN" "http://www.w3.org/Graphics/SVG/1.1/DTD/svg11.dtd"><svg t="1738231033193" class="icon" viewBox="0 0 1024 1024" version="1.1" xmlns="http://www.w3.org/2000/svg" p-id="9111" xmlns:xlink="http://www.w3.org/1999/xlink" width="200" height="200"><path d="M784.64 784c-48 0-73.6-22.4-96-38.4-16-16-28.8-25.6-54.4-25.6-25.6 0-35.2 9.6-54.4 25.6-19.2 19.2-44.8 38.4-96 38.4-48 0-73.6-22.4-96-38.4-16-16-28.8-25.6-54.4-25.6-25.6 0-35.2 9.6-54.4 25.6-19.2 19.2-44.8 38.4-96 38.4-48 0-73.6-22.4-96-38.4-16-16-28.8-25.6-54.4-25.6-19.2 0-32-12.8-32-32s12.8-32 32-32c48 0 73.6 22.4 96 38.4 16 16 28.8 25.6 54.4 25.6 25.6 0 35.2-9.6 54.4-25.6 19.2-19.2 44.8-38.4 96-38.4s73.6 22.4 96 38.4c16 16 28.8 25.6 54.4 25.6 25.6 0 35.2-9.6 54.4-25.6 19.2-19.2 44.8-38.4 96-38.4 48 0 73.6 22.4 96 38.4 16 16 28.8 25.6 54.4 25.6 25.6 0 35.2-9.6 54.4-25.6 19.2-19.2 44.8-38.4 96-38.4 19.2 0 32 12.8 32 32s-12.8 32-32 32c-25.6 0-35.2 9.6-54.4 25.6-22.4 16-48 38.4-96 38.4z m-147.2 176c-48 0-76.8-22.4-96-38.4-19.2-16-28.8-25.6-54.4-25.6-25.6 0-38.4 9.6-54.4 25.6-19.2 19.2-48 38.4-96 38.4s-73.6-22.4-96-38.4c-19.2-16-28.8-25.6-54.4-25.6-19.2 0-32-12.8-32-32s12.8-32 32-32c48 0 73.6 22.4 96 38.4 16 16 28.8 25.6 54.4 25.6 25.6 0 38.4-9.6 54.4-25.6 19.2-19.2 48-38.4 96-38.4s76.8 22.4 96 38.4c16 16 28.8 25.6 54.4 25.6 25.6 0 38.4-9.6 54.4-25.6 19.2-19.2 48-38.4 96-38.4 19.2 0 32 12.8 32 32s-12.8 32-32 32c-25.6 0-38.4 9.6-54.4 25.6-22.4 16-48 38.4-96 38.4z m294.4-371.2h-547.2l217.6-371.2c12.8-19.2 35.2-32 57.6-32 25.6 0 48 12.8 57.6 32l214.4 371.2z m-438.4-64h326.4l-160-275.2h-6.4l-160 275.2z m-35.2 64h-416l307.2-553.6c9.6-22.4 32-35.2 57.6-35.2s48 12.8 57.6 35.2l153.6 275.2-160 278.4z m-307.2-64h268.8l124.8-214.4L410.24 64h-3.2l-3.2 3.2-252.8 457.6z" fill="#fffdf3" p-id="9112"></path></svg>